<svg width="51" height="39" viewBox="0 0 51 39" fill="none" xmlns="http://www.w3.org/2000/svg">
<path d="M45.7577 9.97028C45.7901 10.3859 45.7901 10.8016 45.7901 11.2172C45.7901 23.8937 35.273 38.5 16.0508 38.5C10.1288 38.5 4.62757 36.9265 0 34.1954C0.841404 34.2844 1.65033 34.3141 2.52411 34.3141C7.41047 34.3141 11.9086 32.8 15.5007 30.2172C10.9055 30.1281 7.05456 27.3672 5.72776 23.5672C6.37503 23.6562 7.02219 23.7156 7.70183 23.7156C8.64025 23.7156 9.57877 23.5968 10.4525 23.3891C5.66311 22.4984 2.07099 18.639 2.07099 13.9781V13.8594C3.46244 14.5719 5.0806 15.0172 6.79558 15.0765C3.98021 13.3546 2.13573 10.4156 2.13573 7.09056C2.13573 5.30934 2.65341 3.67653 3.55956 2.25152C8.7049 8.07026 16.4391 11.8702 25.1116 12.2859C24.9499 11.5734 24.8527 10.8313 24.8527 10.0891C24.8527 4.80464 29.5127 0.5 35.3052 0.5C38.3147 0.5 41.033 1.65781 42.9423 3.52812C45.3045 3.11252 47.5697 2.31092 49.5762 1.21251C48.7994 3.43912 47.1491 5.30943 44.981 6.49685C47.0844 6.28914 49.1232 5.75465 51 5.01253C49.5764 6.91245 47.7965 8.60458 45.7577 9.97028Z" fill="black"/>
</svg>
