<svg width="59" height="39" viewBox="0 0 59 39" fill="none" xmlns="http://www.w3.org/2000/svg">
<path d="M57.7671 6.44571C57.0886 4.10535 55.0893 2.26215 52.5509 1.63664C47.9498 0.5 29.5 0.5 29.5 0.5C29.5 0.5 11.0503 0.5 6.44908 1.63664C3.91065 2.26225 1.91141 4.10535 1.23286 6.44571C0 10.6878 0 19.5384 0 19.5384C0 19.5384 0 28.389 1.23286 32.6311C1.91141 34.9714 3.91065 36.7379 6.44908 37.3634C11.0503 38.5 29.5 38.5 29.5 38.5C29.5 38.5 47.9497 38.5 52.5509 37.3634C55.0893 36.7379 57.0886 34.9714 57.7671 32.6311C59 28.389 59 19.5384 59 19.5384C59 19.5384 59 10.6878 57.7671 6.44571ZM23.4659 27.5741V11.5027L38.8863 19.5386L23.4659 27.5741Z" fill="black"/>
</svg>
