<svg width="41" height="39" viewBox="0 0 41 39" fill="none" xmlns="http://www.w3.org/2000/svg">
<path d="M20.5046 9.75728C14.6873 9.75728 9.99504 14.1072 9.99504 19.5C9.99504 24.8928 14.6873 29.2427 20.5046 29.2427C26.3219 29.2427 31.0141 24.8928 31.0141 19.5C31.0141 14.1072 26.3219 9.75728 20.5046 9.75728ZM20.5046 25.834C16.7453 25.834 13.672 22.9935 13.672 19.5C13.672 16.0065 16.7361 13.166 20.5046 13.166C24.273 13.166 27.3371 16.0065 27.3371 19.5C27.3371 22.9935 24.2639 25.834 20.5046 25.834ZM33.8953 9.35875C33.8953 10.6222 32.7977 11.6312 31.444 11.6312C30.0812 11.6312 28.9927 10.6137 28.9927 9.35875C28.9927 8.10382 30.0903 7.0863 31.444 7.0863C32.7977 7.0863 33.8953 8.10382 33.8953 9.35875ZM40.8559 11.6651C40.7004 8.62105 39.9504 5.92463 37.5448 3.70306C35.1484 1.48148 32.2398 0.786177 28.9561 0.633549C25.5718 0.455484 15.4282 0.455484 12.0439 0.633549C8.76938 0.777697 5.86074 1.473 3.45516 3.69458C1.04958 5.91616 0.308701 8.61257 0.14406 11.6566C-0.0480201 14.794 -0.0480201 24.1975 0.14406 27.3349C0.299554 30.3789 1.04958 33.0754 3.45516 35.2969C5.86074 37.5185 8.76023 38.2138 12.0439 38.3665C15.4282 38.5445 25.5718 38.5445 28.9561 38.3665C32.2398 38.2223 35.1484 37.527 37.5448 35.2969C39.9413 33.0754 40.6913 30.3789 40.8559 27.3349C41.048 24.1975 41.048 14.8025 40.8559 11.6651ZM36.4838 30.7012C35.7704 32.3631 34.3892 33.6435 32.5873 34.3133C29.8891 35.3054 23.4864 35.0765 20.5046 35.0765C17.5228 35.0765 11.1109 35.2969 8.42181 34.3133C6.62906 33.652 5.24791 32.3716 4.52532 30.7012C3.45516 28.1998 3.70212 22.2643 3.70212 19.5C3.70212 16.7357 3.46431 10.7918 4.52532 8.29884C5.23876 6.6369 6.61991 5.35652 8.42181 4.68666C11.1201 3.69458 17.5228 3.92352 20.5046 3.92352C23.4864 3.92352 29.8982 3.70306 32.5873 4.68666C34.3801 5.34804 35.7612 6.62842 36.4838 8.29884C37.554 10.8002 37.307 16.7357 37.307 19.5C37.307 22.2643 37.554 28.2082 36.4838 30.7012Z" fill="black"/>
</svg>
